<?xml version="1.0" encoding="utf-8"?>
<!-- Generator: Adobe Illustrator 19.0.0, SVG Export Plug-In . SVG Version: 6.00 Build 0)  -->
<svg version="1.1" id="Layer_1" xmlns="http://www.w3.org/2000/svg" xmlns:xlink="http://www.w3.org/1999/xlink" x="0px" y="0px"
	 width="188px" height="138.8px" viewBox="0 0 188 138.8" style="enable-background:new 0 0 188 138.8;" xml:space="preserve">
<style type="text/css">
	.st0{fill:#C1D18C;}
	.st1{fill:#C7DF8C;}
	.st2{fill:#5F381D;}
	.st3{fill:#DEA6A5;}
	.st4{fill:none;stroke:#603A1E;stroke-width:3;stroke-linecap:round;stroke-linejoin:round;stroke-miterlimit:10;}
</style>
<g id="XMLID_446_">
	<path id="XMLID_454_" class="st0" d="M154.9,63.1c-1.8-14.3-12-25.8-25.1-29c-3-15.8-16.2-27.7-32-27.7c-16,0-29.3,12.2-32.1,28.3
		c-0.4,0-0.8,0-1.3,0c-16.8,0-30.7,12.9-33,29.6C17.9,70.4,9,81,9,93.1c0,19.1,22.3,34.6,49.8,34.6c0.4,0,0.8,0,1.2,0
		c9.9,1.9,20.9,2.9,32.5,2.9c11.8,0,23.1-1.1,33.2-3c1.5,0.1,3.1,0.2,4.6,0.2c27.5,0,49.8-15.5,49.8-34.6
		C180.1,80.2,170,69,154.9,63.1z"/>
	<path id="XMLID_453_" class="st1" d="M145.6,61.7c-1.7-13.4-11.3-24.3-23.6-27.2c-2.8-14.8-15.2-26-30.1-26
		C76.8,8.5,64.3,20,61.7,35.1c-0.4,0-0.8,0-1.2,0c-15.8,0-28.9,12.1-31.1,27.8C16.7,68.7,8.3,78.6,8.3,90c0,17.9,21,32.5,46.9,32.5
		c0.4,0,0.8,0,1.2,0c9.4,1.8,19.7,2.7,30.6,2.7c11.1,0,21.7-1,31.2-2.9c1.4,0.1,2.9,0.1,4.3,0.1c25.9,0,46.9-14.5,46.9-32.5
		C169.4,77.9,159.8,67.3,145.6,61.7z"/>
	<ellipse id="XMLID_452_" class="st2" cx="90.9" cy="86.4" rx="3.2" ry="5.8"/>
	<path id="XMLID_451_" class="st3" d="M94.1,86.4c0,3.2-1.4,5.8-3.2,5.8s-3.2-2.6-3.2-5.8"/>
	<polyline id="XMLID_450_" class="st4" points="67.8,75.7 72.8,78.6 77.9,81.6 72.8,84.5 67.8,87.4 	"/>
	<polyline id="XMLID_449_" class="st4" points="114.7,75.7 109.6,78.6 104.6,81.6 109.6,84.5 114.7,87.4 	"/>
	<path id="XMLID_448_" class="st3" d="M117.2,95.4h-9c-0.7,0-1.3-0.6-1.3-1.3v-0.6c0-0.7,0.6-1.3,1.3-1.3h9c0.7,0,1.3,0.6,1.3,1.3
		v0.6C118.4,94.8,117.9,95.4,117.2,95.4z"/>
	<path id="XMLID_447_" class="st3" d="M74.7,95.4h-9c-0.7,0-1.3-0.6-1.3-1.3v-0.6c0-0.7,0.6-1.3,1.3-1.3h9c0.7,0,1.3,0.6,1.3,1.3
		v0.6C76,94.8,75.4,95.4,74.7,95.4z"/>
</g>
</svg>
