<?xml version="1.0" encoding="utf-8"?>
<!-- Generator: Adobe Illustrator 19.0.0, SVG Export Plug-In . SVG Version: 6.00 Build 0)  -->
<svg version="1.1" id="Layer_1" xmlns="http://www.w3.org/2000/svg" xmlns:xlink="http://www.w3.org/1999/xlink" x="0px" y="0px"
	 width="551.1px" height="389.7px" viewBox="0 0 551.1 389.7" style="enable-background:new 0 0 551.1 389.7;" xml:space="preserve"
	>
<style type="text/css">
	.st0{fill:#C1D18C;}
</style>
<g id="XMLID_599_">
	<path id="XMLID_607_" class="st0" d="M86.2,174.5c2.1-5.2-1.9-11.8-9.1-14.7c-3.8-1.6-7.7-1.8-10.9-0.8c-1.4-1.3-3.2-2.3-5.1-3.2
		c-2.5-1-5-1.5-7.4-1.4c-1.5-3.1-4.6-5.9-8.6-7.6c-5-2.1-10.2-1.8-13.6,0.4c-1.6-1.8-3.8-3.3-6.4-4.4c-5.4-2.2-10.9-1.7-14.3,0.8
		c1.1,2.6,3.1,4.8,5.9,6L79.8,178c0.7,0.3,1.5,0.6,2.2,0.7C83.9,177.8,85.4,176.4,86.2,174.5z"/>
</g>
</svg>
