<?xml version="1.0" encoding="utf-8"?>
<!-- Generator: Adobe Illustrator 19.0.0, SVG Export Plug-In . SVG Version: 6.00 Build 0)  -->
<svg version="1.1" id="Layer_1" xmlns="http://www.w3.org/2000/svg" xmlns:xlink="http://www.w3.org/1999/xlink" x="0px" y="0px"
	 width="141px" height="190px" viewBox="0 0 141 190" style="enable-background:new 0 0 141 190;" xml:space="preserve">
<style type="text/css">
	.st0{fill:#C1D18C;}
	.st1{fill:#C7DF8C;}
	.st2{fill:#5F381D;}
	.st3{fill:#DEA6A5;}
	.st4{fill:#603A1E;}
	.st5{fill:#FEF3ED;}
	.st6{opacity:0.5;fill:#FEF3ED;}
</style>
<g id="XMLID_53_">
	<path id="XMLID_64_" class="st0" d="M123.1,90.2c-6.6-12.4-11.6-25.8-14.5-39.7C104,28.8,98,5.6,70.8,5.6C47,5.6,38.2,25,33.7,45
		c-2.8,12.6-6.6,25-12,36.7c-6.1,13.1-13,25-13,39.9c0,33.1,27.6,60,61.6,60c29.2,0,55.2-20.6,60.4-49.5c2.5-13.6,0-28.1-6.7-40.2
		C123.7,91.3,123.4,90.8,123.1,90.2z"/>
	<path id="XMLID_63_" class="st1" d="M113,89.7c-6-11.2-10.5-23.3-13.1-35.8c-4.1-19.6-9.6-40.6-34.1-40.6
		c-21.5,0-29.5,17.5-33.5,35.6c-2.6,11.3-5.9,22.6-10.8,33.1c-5.5,11.8-11.8,22.6-11.8,36c0,29.9,24.9,54.2,55.6,54.2
		c26.3,0,49.8-18.6,54.6-44.7c2.2-12.3,0-25.3-6-36.3C113.5,90.6,113.2,90.1,113,89.7z"/>
	<circle id="XMLID_62_" class="st2" cx="65.1" cy="124.1" r="34.9"/>
	<circle id="XMLID_61_" class="st3" cx="41.1" cy="74.7" r="5.7"/>
	<circle id="XMLID_60_" class="st3" cx="91.9" cy="74.7" r="5.7"/>
	<circle id="XMLID_59_" class="st2" cx="85.6" cy="68.9" r="7.3"/>
	<circle id="XMLID_58_" class="st2" cx="47.6" cy="68.9" r="7.3"/>
	<g id="XMLID_57_">
		<path id="XMLID_92_" class="st4" d="M70.7,71.7c-1.2,0-2.7-0.4-4.1-1.6c-3.3,2.8-6.4,1.5-7.7,0.3c-0.4-0.4-0.4-1,0-1.4
			c0.4-0.4,1-0.4,1.4,0c0.2,0.2,2.6,2.1,5.6-0.9c0.4-0.4,1-0.4,1.4,0c3.1,3.1,5.5,1,5.6,0.9c0.4-0.4,1-0.4,1.4,0
			c0.4,0.4,0.4,1,0,1.4C73.5,71,72.3,71.7,70.7,71.7z"/>
	</g>
	<circle id="XMLID_56_" class="st5" cx="45.5" cy="68" r="2.8"/>
	<circle id="XMLID_55_" class="st6" cx="48.3" cy="107.4" r="5.7"/>
	<circle id="XMLID_54_" class="st5" cx="84" cy="68" r="2.8"/>
</g>
</svg>
