<?xml version="1.0" encoding="utf-8"?>
<!-- Generator: Adobe Illustrator 19.0.0, SVG Export Plug-In . SVG Version: 6.00 Build 0)  -->
<svg version="1.1" id="Layer_1" xmlns="http://www.w3.org/2000/svg" xmlns:xlink="http://www.w3.org/1999/xlink" x="0px" y="0px"
	 width="14.4px" height="19.1px" viewBox="0 0 14.4 19.1" style="enable-background:new 0 0 14.4 19.1;" xml:space="preserve">
<style type="text/css">
	.st0{fill:#C7DF8C;}
</style>
<path id="XMLID_598_" class="st0" d="M12.1,9c-0.1-0.4-0.2-0.8-0.4-1.1c-0.5-1.2-1.4-2.2-2.1-3.3c-0.9-1.3-1.7-2.7-2.5-4
	C6.3,2,5.4,3.3,4.6,4.6C3.8,5.8,2.9,7,2.4,8.3c-1,2.7-0.2,5.9,1.8,7.9C5,17,6,17.6,7.1,17.6c1.2,0,2.3-0.6,3.1-1.5
	C12,14.3,12.7,11.5,12.1,9z"/>
</svg>
