<?xml version="1.0" encoding="utf-8"?>
<!-- Generator: Adobe Illustrator 19.0.0, SVG Export Plug-In . SVG Version: 6.00 Build 0)  -->
<svg version="1.1" id="Layer_1" xmlns="http://www.w3.org/2000/svg" xmlns:xlink="http://www.w3.org/1999/xlink" x="0px" y="0px"
	 width="458px" height="492px" viewBox="0 0 458 492" style="enable-background:new 0 0 458 492;" xml:space="preserve">
<style type="text/css">
	.st0{fill:#F9C09D;}
	.st1{fill:#C1D18C;}
	.st2{fill:#EFC865;}
	.st3{fill:#FCDE6B;}
	.st4{opacity:0.6;fill:#EFC865;}
	.st5{fill:#5F381D;}
	.st6{fill:#FEF3ED;}
	.st7{fill:#DC6A6A;}
	.st8{fill:#DEA6A5;}
	.st9{fill:#C7DF8C;}
	.st10{fill:#603A1E;}
	.st11{opacity:0.5;}
</style>
<g id="XMLID_585_">
	<g id="XMLID_87_">
		<path id="XMLID_586_" class="st0" d="M414.9,116l-11.8,8.6l-2.4,1.7l-0.1,0.1c-8.3,5.6-18.7,8.3-29.5,6.6
			c-22.5-3.5-38-24.4-34.7-46.9c3.6-22.4,24.7-37.8,47.2-34.3c10.7,1.7,19.9,7.3,26.1,15.2l0.1,0.1l1.7,2.4l8.6,11.8
			c4.1,5.6,12.1,6.8,17.7,2.7c4.2-3.1,5.9-8.2,4.8-13c-0.2-1-0.6-1.9-1-2.8c-4.3-11.3-11.6-21.3-21-28.9C414,33.8,406,29.6,397.2,27
			c-2.9-0.9-5.9-1.6-9-2c-37.3-5.8-72.3,19.6-78.1,57.1h0c0,0,0,0,0,0c0,0,0,0,0,0h0c-5.7,37.5,19.9,72.3,57.3,78.1
			c3.1,0.5,6.2,0.8,9.2,0.8c9.2,0.2,18.1-1.5,26.2-4.7c11.3-4.4,21.2-11.8,28.7-21.3c0.7-0.7,1.3-1.5,1.8-2.4
			c2.5-4.2,2.4-9.7-0.7-13.9C428.5,113.2,420.6,111.9,414.9,116z M397.1,27c-0.2,0.1-0.4,0.3-0.6,0.4
			C396.5,27.3,396.8,27.2,397.1,27z M376,160.3c0.2,0.2,0.3,0.4,0.5,0.6C376.3,160.7,376,160.5,376,160.3z"/>
		<g id="XMLID_578_">
			<path id="XMLID_583_" class="st1" d="M243.2,112.8L243.2,112.8c-0.2,0.5-0.3,1.8-0.5,2.6C242.9,114.6,243,113.3,243.2,112.8z"/>
			<path id="XMLID_582_" class="st1" d="M243.6,110C243.6,110,243.6,110,243.6,110C243.6,110,243.6,110,243.6,110z"/>
			<path id="XMLID_579_" class="st1" d="M220.2,34.2c-3.5,0.5-6.5,2.4-8.4,5.1c0,0,0,0,0,0c0,0,0,0,0,0c-1.8,2.6-2.8,5.8-2.3,9.2
				c0,0,6.1,42.8,6.1,42.8l0.5,3.7c0.8,8.3-1.2,16.2-5.1,22.5c-4.3,6.8-11,11.3-19,12.4c-8,1.1-15.7-1.3-21.8-6.6
				c-0.7-0.6-1.3-1.3-1.9-1.9c-3.9-4.2-6.9-9.3-8.4-15.2l-1.4-10l-5.6-39.6c-0.5-3.4-2.3-6.3-4.9-8.3c0,0,0,0,0,0
				c-0.3,0.3-0.7,0.7-1,1c0.3-0.3,0.6-0.7,0.9-1c-2.6-2-5.9-2.9-9.4-2.5c-6.9,1-11.7,7.4-10.7,14.3c0,0,3.3,23.3,3.3,23.3
				c2.1,14.6,2.2,31,7.6,44.9c8.7,22.1,34.3,37,57.8,33.7c25.7-3.6,44.8-27.4,46.2-52.7c0.7-13.4-2.8-26.7-4.7-39.9l-3.5-24.4
				C233.5,38,227.1,33.2,220.2,34.2z M242.6,115.4C242.6,115.4,242.6,115.4,242.6,115.4L242.6,115.4z"/>
		</g>
		<g id="XMLID_518_">
			<g id="XMLID_569_">
				<path id="XMLID_577_" class="st2" d="M318.8,97.8l15.8,50.3c3.1,10-5.7,19.6-16,17.3l-51.1-11.5l-51.4-11.5
					c-10.2-2.3-14.1-14.7-7.1-22.5l35.5-38.8L280,42.4c7.1-7.7,19.9-4.9,23,5.1L318.8,97.8z"/>
				<path id="XMLID_576_" class="st3" d="M307.9,101.4l14.3,45.7c2.9,9.1-5.4,17.9-14.8,15.8l-47.1-10.2l-47.4-10.2
					c-9.4-2-13-13.3-6.4-20.4l33-35.5l32.9-35.4c6.6-7.1,18.4-4.5,21.2,4.5L307.9,101.4z"/>
				<path id="XMLID_575_" class="st4" d="M279.1,85.4c0.4,0.1,0.9,0.2,1.3,0.2c4.7,0.4,8.7-3.2,9.1-7.8c0.4-4.7-3.2-8.7-7.8-9.1
					c-3.5-0.3-6.6,1.6-8.1,4.5c-0.4-0.1-0.9-0.2-1.3-0.2c-4.7-0.4-8.7,3.2-9.1,7.8c-0.4,4.7,3.2,8.7,7.8,9.1
					C274.4,90.2,277.6,88.3,279.1,85.4z"/>
				<circle id="XMLID_574_" class="st4" cx="273.4" cy="135.6" r="8.5"/>
				<circle id="XMLID_573_" class="st4" cx="243.4" cy="114.2" r="5.8"/>
				<circle id="XMLID_572_" class="st4" cx="287.2" cy="105.9" r="5.8"/>
			</g>
			<g id="XMLID_559_">
				<circle id="XMLID_566_" class="st5" cx="283.2" cy="126.7" r="6.1"/>
				<circle id="XMLID_565_" class="st5" cx="252.5" cy="119.9" r="6.1"/>
				<circle id="XMLID_564_" class="st6" cx="251" cy="118.7" r="2.3"/>
				<circle id="XMLID_563_" class="st6" cx="282.1" cy="125.7" r="2.3"/>
				<path id="XMLID_562_" class="st7" d="M268.1,129.8c-0.6,2.5-2.2,4.4-3.6,4c-1.4-0.3-2.1-2.6-1.5-5.2"/>
				<path id="XMLID_561_" class="st8" d="M284.4,138.4l-6.7-1.6c-0.7-0.2-1.1-0.9-0.9-1.5l0,0c0.2-0.7,0.9-1.1,1.5-0.9l6.7,1.6
					c0.7,0.2,1.1,0.9,0.9,1.5l0,0C285.7,138.1,285,138.5,284.4,138.4z"/>
				<path id="XMLID_560_" class="st8" d="M251.6,131.2l-6.7-1.6c-0.7-0.2-1.1-0.9-0.9-1.5l0,0c0.2-0.7,0.9-1.1,1.5-0.9l6.7,1.6
					c0.7,0.2,1.1,0.9,0.9,1.5l0,0C253,130.9,252.3,131.3,251.6,131.2z"/>
			</g>
		</g>
		<g id="XMLID_508_">
			<path id="XMLID_517_" class="st0" d="M149.9,85.8c0.6,4.8,0.7,9.6,0.3,14.3c1.9-2.9,2.6-6.7,1.6-10.3l0,0
				C151.4,88.3,150.7,87,149.9,85.8z"/>
			<path id="XMLID_516_" class="st0" d="M132.3,45c-8.6-8.5-19.3-14.6-31-17.7"/>
			<path id="XMLID_515_" class="st0" d="M102.8,57.2l2.6,1.4C104.6,58.2,103.7,57.7,102.8,57.2z"/>
			<path id="XMLID_514_" class="st0" d="M132.3,45c0.7,0.7,1.4,1.4,2.1,2.2C133.8,46.4,133.1,45.7,132.3,45z"/>
			<g id="XMLID_509_">
				<path id="XMLID_513_" class="st0" d="M84,108.8C84,108.8,84,108.8,84,108.8c0-0.1,0-0.1,0-0.1L84,108.8z"/>
				<path id="XMLID_510_" class="st0" d="M149.9,85.9c-3-4.2-8.4-6.1-13.6-4.7l-14.2,4L93,93.3c-6.7,1.9-10.8,8.8-9,15.4
					c1.9,6.6,9,10.4,15.7,8.5l19.6-5.5l2.1-0.6c-4.9,10.9-14.3,19.3-26.5,22.7c-22,6.2-44.9-6.7-51.1-28.7
					c-6.2-22,6.7-44.9,28.8-51.1c10.5-2.9,21.1-1.6,30.1,3l0.2,0.1c0.9,0.5,1.7,0.9,2.6,1.4l12.7,7.2c6.1,3.4,13.8,1.2,17.2-4.8
					c2.5-4.5,2-9.9-1-13.8c-0.7-0.7-1.4-1.5-2.1-2.2c-0.5-0.4-1.1-0.8-1.8-1.2l-29.3-16.5c-8.5-2.2-17.5-2.8-26.6-1.6
					c-3,0.4-6,1-9,1.9c-36.4,10.2-57.7,48-47.5,84.4s48,57.7,84.4,47.5c5.9-1.6,11.5-4.1,16.8-7.2c5.1-3,9.8-6.8,13.9-11
					c4.1-4.2,7.6-8.9,10.5-14c2.9-5.1,5.1-10.5,6.6-16.2c0.7-2.6,1.2-5.3,1.7-8c0.6-3.6,0.4-7.3,0.4-11 M74.6,25.9
					c-0.1,0.2-0.3,0.4-0.4,0.6C74.1,26.3,74.4,26.1,74.6,25.9z"/>
			</g>
		</g>
	</g>
	<g id="XMLID_584_">
		<g id="XMLID_493_">
			<path id="XMLID_497_" class="st1" d="M352.6,458.7L352.6,458.7c-6.9,0.8-13.2-4.2-14-11.1l-12.5-109.4c-0.8-6.9,4.2-13.2,11.1-14
				h0c6.9-0.8,13.2,4.2,14,11.1l12.5,109.4C364.5,451.6,359.5,457.9,352.6,458.7z"/>
			<path id="XMLID_496_" class="st1" d="M420.6,439.8L420.6,439.8c0.6,6.9-4.5,13.1-11.4,13.7l-56.6,5.1
				c-6.9,0.6-13.1-4.5-13.7-11.4l0,0c-0.6-6.9,4.5-13.1,11.4-13.7l56.6-5.1C413.8,427.8,419.9,432.9,420.6,439.8z"/>
			<path id="XMLID_495_" class="st1" d="M416.5,395.4L416.5,395.4c0.6,6.9-4.5,13.1-11.4,13.7l-56.6,5.1
				c-6.9,0.6-13.1-4.5-13.7-11.4v0c-0.6-6.9,4.5-13.1,11.4-13.7l56.6-5.1C409.7,383.3,415.9,388.5,416.5,395.4z"/>
			<path id="XMLID_494_" class="st1" d="M410.6,330.1L410.6,330.1c0.6,6.9-4.5,13.1-11.4,13.7l-56.6,5.1
				c-6.9,0.6-13.1-4.5-13.7-11.4v0c-0.6-6.9,4.5-13.1,11.4-13.7l56.6-5.1C403.8,318.1,410,323.2,410.6,330.1z"/>
		</g>
		<g id="XMLID_501_">
			<path id="XMLID_505_" class="st3" d="M70.4,458.6L70.4,458.6c-6.9,1.1-13.4-3.6-14.5-10.4L38.1,339.4
				c-1.1-6.9,3.6-13.4,10.4-14.5h0c6.9-1.1,13.4,3.6,14.5,10.4l17.7,108.7C81.9,451,77.2,457.5,70.4,458.6z"/>
			<path id="XMLID_504_" class="st3" d="M173.5,445.2L173.5,445.2c-6.9,1.1-13.4-3.7-14.4-10.6l-16.8-108.9
				c-1.1-6.9,3.7-13.4,10.6-14.4l0,0c6.9-1.1,13.4,3.7,14.4,10.6l16.8,108.9C185.2,437.6,180.4,444.1,173.5,445.2z"/>
			<path id="XMLID_503_" class="st3" d="M119.1,389.3L119.1,389.3c-4.2,5.5-12.2,6.5-17.7,2.3l-57.6-44.3
				c-5.5-4.2-6.5-12.2-2.3-17.7l0,0c4.2-5.5,12.2-6.5,17.7-2.3l57.6,44.3C122.3,375.8,123.4,383.8,119.1,389.3z"/>
			<path id="XMLID_502_" class="st3" d="M101.4,391.6L101.4,391.6c-5.5-4.2-6.5-12.2-2.3-17.7l44.7-58.1c4.2-5.5,12.2-6.5,17.7-2.3
				l0,0c5.5,4.2,6.5,12.2,2.3,17.7l-44.7,58.1C114.9,394.8,106.9,395.8,101.4,391.6z"/>
		</g>
		<g id="XMLID_498_">
			<path id="XMLID_500_" class="st0" d="M276.4,451.3L276.4,451.3c-6.8-1.3-11.4-7.9-10.1-14.7l20.3-108.3
				c1.3-6.8,7.9-11.4,14.7-10.1h0c6.8,1.3,11.4,7.9,10.1,14.7l-20.3,108.3C289.8,448,283.2,452.5,276.4,451.3z"/>
			<path id="XMLID_499_" class="st0" d="M346.1,453.1L346.1,453.1c-1.4,6.8-8.2,11.2-15,9.7l-54.8-11.6c-6.8-1.4-11.2-8.2-9.7-15v0
				c1.4-6.8,8.2-11.2,15-9.7l54.8,11.6C343.2,439.6,347.6,446.3,346.1,453.1z"/>
		</g>
		<g id="XMLID_470_">
			<g id="XMLID_491_">
				<path id="XMLID_492_" class="st1" d="M268.7,388.2c-5.6-10.5-9.9-21.9-12.3-33.7c-3.9-18.5-9-38.2-32.1-38.2
					c-20.2,0-27.7,16.5-31.5,33.5c-2.4,10.7-5.6,21.2-10.2,31.1c-5.2,11.1-11.1,21.3-11.1,33.9c0,28.2,23.4,51,52.3,51
					c24.8,0,46.9-17.5,51.3-42.1c2.1-11.6,0-23.8-5.7-34.1C269.2,389.2,268.9,388.7,268.7,388.2z"/>
			</g>
			<g id="XMLID_489_">
				<path id="XMLID_490_" class="st9" d="M260.1,387.7c-5.1-9.5-8.9-19.8-11.1-30.4c-3.5-16.7-8.1-34.5-29-34.5
					c-18.3,0-25,14.9-28.5,30.2c-2.2,9.6-5.1,19.2-9.2,28.1c-4.7,10.1-10,19.2-10,30.6c0,25.4,21.1,46,47.2,46
					c22.4,0,42.3-15.8,46.4-38c1.9-10.4,0-21.5-5.1-30.8C260.5,388.6,260.3,388.2,260.1,387.7z"/>
			</g>
			<g id="XMLID_487_">
				<circle id="XMLID_488_" class="st5" cx="219.4" cy="417" r="29.6"/>
			</g>
			<g id="XMLID_485_">
				<circle id="XMLID_486_" class="st8" cx="199.1" cy="375" r="4.9"/>
			</g>
			<g id="XMLID_483_">
				<circle id="XMLID_484_" class="st8" cx="242.2" cy="375" r="4.9"/>
			</g>
			<g id="XMLID_481_">
				<circle id="XMLID_482_" class="st5" cx="236.8" cy="370.2" r="6.2"/>
			</g>
			<g id="XMLID_479_">
				<circle id="XMLID_480_" class="st5" cx="204.5" cy="370.2" r="6.2"/>
			</g>
			<g id="XMLID_477_">
				<path id="XMLID_478_" class="st10" d="M223,372.4c-0.7,0-1.5-0.2-2.3-0.8c-2,1.5-3.9,0.7-4.6-0.1c-0.4-0.4-0.4-1,0-1.4
					c0.4-0.4,1-0.4,1.4,0c0.3,0.2,1.2,0.9,2.6-0.5c0.4-0.4,1-0.4,1.4,0c1.4,1.4,2.3,0.7,2.6,0.5c0.4-0.4,1-0.3,1.4,0.1
					c0.4,0.4,0.3,1-0.1,1.4C224.8,371.9,224,372.4,223,372.4z"/>
			</g>
			<g id="XMLID_475_">
				<circle id="XMLID_476_" class="st6" cx="202.8" cy="369.3" r="2.4"/>
			</g>
			<g id="XMLID_473_" class="st11">
				<circle id="XMLID_474_" class="st6" cx="205.2" cy="402.8" r="4.8"/>
			</g>
			<g id="XMLID_471_">
				<circle id="XMLID_472_" class="st6" cx="235.5" cy="369.3" r="2.4"/>
			</g>
		</g>
	</g>
	<g id="XMLID_506_">
		<path id="XMLID_507_" class="st1" d="M336.5,242.5c0,3.3-2.6,5.9-5.9,5.9h-54.1c-3.3,0-5.9-2.6-5.9-5.9l0,0c0-3.3,2.6-5.9,5.9-5.9
			h54.1C333.8,236.6,336.5,239.2,336.5,242.5L336.5,242.5z"/>
		<path id="XMLID_90_" class="st1" d="M188.1,242.5c0,3.3-2.6,5.9-5.9,5.9H128c-3.3,0-5.9-2.6-5.9-5.9l0,0c0-3.3,2.6-5.9,5.9-5.9
			h54.1C185.4,236.6,188.1,239.2,188.1,242.5L188.1,242.5z"/>
		<g id="XMLID_427_">
			<path id="XMLID_469_" class="st7" d="M248,257.6L248,257.6c-0.3,3.7-3.6,6.4-7.2,6.1l-23.7-2c-3.7-0.3-6.4-3.6-6.1-7.2v0
				c0.3-3.7,3.6-6.4,7.2-6.1l23.7,2C245.6,250.7,248.4,253.9,248,257.6z"/>
			<path id="XMLID_468_" class="st7" d="M203.2,270.6L203.2,270.6c-3.3-1.7-4.5-5.8-2.8-9l27.1-51.5c1.7-3.3,5.8-4.5,9-2.8l0,0
				c3.3,1.7,4.5,5.8,2.8,9l-27.1,51.5C210.5,271.1,206.5,272.3,203.2,270.6z"/>
			<path id="XMLID_467_" class="st7" d="M254.2,274.9L254.2,274.9c-3.5,1.2-7.3-0.8-8.4-4.2l-18.3-55.3c-1.2-3.5,0.8-7.3,4.2-8.4
				l0,0c3.5-1.2,7.3,0.8,8.4,4.2l18.3,55.3C259.6,269.9,257.7,273.7,254.2,274.9z"/>
		</g>
	</g>
</g>
</svg>
