<?xml version="1.0" encoding="utf-8"?>
<!-- Generator: Adobe Illustrator 19.0.0, SVG Export Plug-In . SVG Version: 6.00 Build 0)  -->
<svg version="1.1" id="Layer_1" xmlns="http://www.w3.org/2000/svg" xmlns:xlink="http://www.w3.org/1999/xlink" x="0px" y="0px"
	 width="545.7px" height="366.5px" viewBox="0 0 545.7 366.5" style="enable-background:new 0 0 545.7 366.5;" xml:space="preserve"
	>
<style type="text/css">
	.st0{fill:#F4E9E4;}
	.st1{fill:#C7DF8C;}
	.st2{fill:#DC6A6A;}
	.st3{fill:#C1D18C;}
	.st4{fill:#FEF3ED;}
</style>
<g id="XMLID_520_">
	<path id="XMLID_437_" class="st0" d="M527.2,122.6C505.7,85.9,400.8,58,274.6,58c-132.2,0-241,30.6-255.1,69.9
		c-0.6,3-1.1,6.1-1.5,9.2c1,43.1,115.5,77.9,256.6,77.9c135.2,0,245.9-32,255.9-72.5c0.5-2,0.7-4,0.7-6
		C531.2,131.8,529.8,127.1,527.2,122.6z"/>
	<g id="XMLID_431_">
		<path id="XMLID_432_" class="st1" d="M322.7,58.8c-1.6-11.5-10.1-20.8-21.1-23.4c-2.5-12.7-13.6-22.3-26.9-22.3
			c-13.5,0-24.7,9.8-27,22.8c-0.4,0-0.7,0-1.1,0c-14.1,0-25.8,10.4-27.8,23.9c-11.4,5-18.9,13.6-18.9,23.3
			c0,15.4,18.8,27.9,41.9,27.9c0.4,0,0.7,0,1,0c8.4,1.5,17.6,2.4,27.3,2.4c10,0,19.4-0.9,27.9-2.5c1.3,0.1,2.6,0.1,3.9,0.1
			c23.1,0,41.9-12.5,41.9-27.9C343.9,72.6,335.3,63.6,322.7,58.8z"/>
	</g>
	<circle id="XMLID_527_" class="st2" cx="269.9" cy="71.9" r="10.1"/>
	<g id="XMLID_206_">
		<path id="XMLID_434_" class="st1" d="M264.5,73.8c-2.3-11.5-15.2-20.8-31.9-23.4c-3.8-12.7-20.6-22.3-40.7-22.3
			c-20.4,0-37.3,9.8-40.8,22.8c-0.5,0-1.1,0-1.6,0c-21.4,0-39.1,10.4-42,23.9c-17.2,5-28.5,13.6-28.5,23.3
			c0,15.4,28.4,27.9,63.3,27.9c0.5,0,1.1,0,1.6,0c12.6,1.5,26.6,2.4,41.3,2.4c15.1,0,29.4-0.9,42.2-2.5c1.9,0.1,3.9,0.1,5.9,0.1
			c35,0,63.3-12.5,63.3-27.9C296.6,87.6,283.7,78.6,264.5,73.8z"/>
	</g>
	<g id="XMLID_433_">
		<path id="XMLID_435_" class="st1" d="M310.7,117.8c-2.4-11.5-15.7-20.8-33-23.4c-4-12.7-21.3-22.3-42.1-22.3
			c-21,0-38.5,9.8-42.2,22.8c-0.6,0-1.1,0-1.7,0c-22.1,0-40.4,10.4-43.4,23.9c-17.8,5-29.5,13.6-29.5,23.3
			c0,15.4,29.3,27.9,65.5,27.9c0.6,0,1.1,0,1.6,0c13.1,1.5,27.5,2.4,42.7,2.4c15.6,0,30.3-0.9,43.6-2.5c2,0.1,4,0.1,6.1,0.1
			c36.2,0,65.5-12.5,65.5-27.9C343.9,131.6,330.5,122.6,310.7,117.8z"/>
	</g>
	<g id="XMLID_438_">
		<path id="XMLID_440_" class="st1" d="M504.8,116.8c-1.9-11.5-12.6-20.8-26.5-23.4c-3.2-12.7-17.1-22.3-33.8-22.3
			c-16.9,0-30.9,9.8-33.9,22.8c-0.4,0-0.9,0-1.3,0c-17.7,0-32.4,10.4-34.9,23.9c-14.3,5-23.7,13.6-23.7,23.3
			c0,15.4,23.5,27.9,52.6,27.9c0.4,0,0.9,0,1.3,0c10.5,1.5,22.1,2.4,34.3,2.4c12.5,0,24.4-0.9,35-2.5c1.6,0.1,3.2,0.1,4.9,0.1
			c29,0,52.6-12.5,52.6-27.9C531.4,130.6,520.7,121.6,504.8,116.8z"/>
	</g>
	<g id="XMLID_461_">
		<path id="XMLID_462_" class="st1" d="M497.8,137.8c-1.9-11.5-12.6-20.8-26.5-23.4c-3.2-12.7-17.1-22.3-33.8-22.3
			c-16.9,0-30.9,9.8-33.9,22.8c-0.4,0-0.9,0-1.3,0c-17.7,0-32.4,10.4-34.9,23.9c-14.3,5-23.7,13.6-23.7,23.3
			c0,15.4,23.5,27.9,52.6,27.9c0.4,0,0.9,0,1.3,0c10.5,1.5,22.1,2.4,34.3,2.4c12.5,0,24.4-0.9,35-2.5c1.6,0.1,3.2,0.1,4.9,0.1
			c29,0,52.6-12.5,52.6-27.9C524.4,151.6,513.7,142.6,497.8,137.8z"/>
	</g>
	<g id="XMLID_443_">
		<path id="XMLID_444_" class="st1" d="M424.9,60.8c-1.7-11.5-11.3-20.8-23.7-23.4c-2.9-12.7-15.3-22.3-30.3-22.3
			c-15.2,0-27.7,9.8-30.4,22.8c-0.4,0-0.8,0-1.2,0c-15.9,0-29.1,10.4-31.3,23.9c-12.8,5-21.2,13.6-21.2,23.3
			c0,15.4,21.1,27.9,47.1,27.9c0.4,0,0.8,0,1.2,0c9.4,1.5,19.8,2.4,30.8,2.4c11.2,0,21.8-0.9,31.4-2.5c1.4,0.1,2.9,0.1,4.4,0.1
			c26,0,47.1-12.5,47.1-27.9C448.8,74.6,439.2,65.6,424.9,60.8z"/>
	</g>
	<g id="XMLID_204_">
		<path id="XMLID_430_" class="st3" d="M146.8,121.9c-1.6-12.3-10.3-22.2-21.6-24.9c-2.6-13.6-13.9-23.8-27.5-23.8
			c-13.7,0-25.2,10.5-27.6,24.3c-0.4,0-0.7,0-1.1,0c-14.4,0-26.4,11-28.4,25.4c-11.6,5.3-19.3,14.4-19.3,24.8
			c0,16.4,19.1,29.7,42.8,29.7c0.4,0,0.7,0,1.1,0c8.5,1.6,18,2.5,27.9,2.5c10.2,0,19.8-0.9,28.5-2.6c1.3,0.1,2.6,0.1,4,0.1
			c23.6,0,42.8-13.3,42.8-29.7C168.5,136.7,159.7,127,146.8,121.9z"/>
		<path id="XMLID_429_" class="st1" d="M138.8,120.8c-1.5-11.5-9.7-20.8-20.3-23.4c-2.4-12.7-13.1-22.3-25.9-22.3
			c-12.9,0-23.7,9.8-26,22.8c-0.3,0-0.7,0-1,0c-13.6,0-24.8,10.4-26.7,23.9c-10.9,5-18.1,13.6-18.1,23.3c0,15.4,18,27.9,40.2,27.9
			c0.3,0,0.7,0,1,0c8,1.5,16.9,2.4,26.3,2.4c9.6,0,18.6-0.9,26.8-2.5c1.2,0.1,2.5,0.1,3.7,0.1c22.2,0,40.2-12.5,40.2-27.9
			C159.2,134.6,151,125.6,138.8,120.8z"/>
	</g>
	<circle id="XMLID_519_" class="st3" cx="183.9" cy="93.9" r="10.1"/>
	<circle id="XMLID_528_" class="st3" cx="433.9" cy="87.9" r="10.1"/>
	<circle id="XMLID_525_" class="st2" cx="81.9" cy="102.9" r="10.1"/>
	<circle id="XMLID_529_" class="st3" cx="54.9" cy="142.9" r="10.1"/>
	<g id="XMLID_442_">
		<path id="XMLID_457_" class="st3" d="M421.1,108.9c-1.8-12.3-11.9-22.2-25-24.9c-3-13.6-16.2-23.8-31.9-23.8
			c-16,0-29.2,10.5-32,24.3c-0.4,0-0.8,0-1.3,0c-16.8,0-30.6,11-33,25.4c-13.5,5.3-22.4,14.4-22.4,24.8c0,16.4,22.2,29.7,49.7,29.7
			c0.4,0,0.8,0,1.2,0c9.9,1.6,20.9,2.5,32.4,2.5c11.8,0,23-0.9,33.1-2.6c1.5,0.1,3,0.1,4.6,0.1c27.4,0,49.7-13.3,49.7-29.7
			C446.3,123.7,436.1,114,421.1,108.9z"/>
		<path id="XMLID_445_" class="st1" d="M411.9,107.8c-1.7-11.5-11.2-20.8-23.5-23.4c-2.8-12.7-15.2-22.3-30-22.3
			c-15,0-27.5,9.8-30.1,22.8c-0.4,0-0.8,0-1.2,0c-15.8,0-28.8,10.4-31,23.9c-12.7,5-21,13.6-21,23.3c0,15.4,20.9,27.9,46.7,27.9
			c0.4,0,0.8,0,1.2,0c9.3,1.5,19.7,2.4,30.5,2.4c11.1,0,21.7-0.9,31.2-2.5c1.4,0.1,2.9,0.1,4.3,0.1c25.8,0,46.7-12.5,46.7-27.9
			C435.5,121.6,426,112.6,411.9,107.8z"/>
	</g>
	<g id="XMLID_463_">
		<path id="XMLID_464_" class="st1" d="M381.8,165.8c-1.9-11.5-12.6-20.8-26.5-23.4c-3.2-12.7-17.1-22.3-33.8-22.3
			c-16.9,0-30.9,9.8-33.9,22.8c-0.4,0-0.9,0-1.3,0c-17.7,0-32.4,10.4-34.9,23.9c-14.3,5-23.7,13.6-23.7,23.3
			c0,15.4,23.5,27.9,52.6,27.9c0.4,0,0.9,0,1.3,0c10.5,1.5,22.1,2.4,34.3,2.4c12.5,0,24.4-0.9,35-2.5c1.6,0.1,3.2,0.1,4.9,0.1
			c29,0,52.6-12.5,52.6-27.9C408.4,179.6,397.7,170.6,381.8,165.8z"/>
	</g>
	<circle id="XMLID_521_" class="st3" cx="343.9" cy="97.9" r="10.1"/>
	<circle id="XMLID_522_" class="st2" cx="275.9" cy="139.9" r="10.1"/>
	<g id="XMLID_458_">
		<path id="XMLID_460_" class="st3" d="M288,171.9c-2-12.3-12.7-22.2-26.7-24.9c-3.2-13.6-17.2-23.8-34.1-23.8
			c-17,0-31.2,10.5-34.2,24.3c-0.5,0-0.9,0-1.4,0c-17.9,0-32.7,11-35.2,25.4c-14.4,5.3-23.9,14.4-23.9,24.8
			c0,16.4,23.7,29.7,53,29.7c0.4,0,0.9,0,1.3,0c10.6,1.6,22.3,2.5,34.6,2.5c12.6,0,24.6-0.9,35.3-2.6c1.6,0.1,3.3,0.1,4.9,0.1
			c29.3,0,53-13.3,53-29.7C314.8,186.7,304,177,288,171.9z"/>
		<path id="XMLID_459_" class="st1" d="M278.1,170.8c-1.8-11.5-12-20.8-25.1-23.4c-3-12.7-16.2-22.3-32.1-22.3
			c-16,0-29.4,9.8-32.2,22.8c-0.4,0-0.8,0-1.3,0c-16.8,0-30.8,10.4-33.1,23.9c-13.5,5-22.5,13.6-22.5,23.3
			c0,15.4,22.3,27.9,49.9,27.9c0.4,0,0.8,0,1.2,0c10,1.5,21,2.4,32.6,2.4c11.9,0,23.1-0.9,33.3-2.5c1.5,0.1,3.1,0.1,4.6,0.1
			c27.5,0,49.9-12.5,49.9-27.9C303.3,184.6,293.1,175.6,278.1,170.8z"/>
	</g>
	<circle id="XMLID_524_" class="st2" cx="157.9" cy="150.9" r="10.1"/>
	<g id="XMLID_465_">
		<path id="XMLID_466_" class="st1" d="M430.7,165.6c-4.2-10.9-16.4-17.9-30.5-17.7c-5.6-11.8-21.1-18.5-37.5-15.2
			c-16.6,3.3-28.4,15.6-28.8,28.9c-0.4,0.1-0.9,0.1-1.3,0.2c-17.4,3.5-29.8,16.5-29.6,30.1c-13,7.7-20.6,17.9-18.7,27.4
			c3,15,28.5,22.6,57,17c0.4-0.1,0.9-0.2,1.3-0.3c10.6-0.6,22.1-2,34.1-4.4c12.3-2.4,23.7-5.6,33.9-9.2c1.6-0.2,3.2-0.5,4.8-0.8
			c28.5-5.7,49.1-22.5,46.1-37.5C459.5,174,447.3,167.2,430.7,165.6z"/>
	</g>
	<circle id="XMLID_526_" class="st3" cx="350.9" cy="176.9" r="10.1"/>
	<g id="XMLID_455_">
		<path id="XMLID_456_" class="st1" d="M153.8,153.8c-1.5-11.5-9.7-20.8-20.3-23.4c-2.4-12.7-13.1-22.3-25.9-22.3
			c-12.9,0-23.7,9.8-26,22.8c-0.3,0-0.7,0-1,0c-13.6,0-24.8,10.4-26.7,23.9c-10.9,5-18.1,13.6-18.1,23.3c0,15.4,18,27.9,40.2,27.9
			c0.3,0,0.7,0,1,0c8,1.5,16.9,2.4,26.3,2.4c9.6,0,18.6-0.9,26.8-2.5c1.2,0.1,2.5,0.1,3.7,0.1c22.2,0,40.2-12.5,40.2-27.9
			C174.2,167.6,166,158.6,153.8,153.8z"/>
	</g>
	<g id="XMLID_436_">
		<path id="XMLID_439_" class="st4" d="M274.6,215C133.5,215,19,180.2,18,137.1c-0.9,6.7-1.4,13.5-1.4,20.3
			c0,108.4,115.2,196.4,257.3,196.4s257.3-87.9,257.3-196.4c0-5-0.2-10-0.7-14.9C520.5,183.1,409.7,215,274.6,215z"/>
		<path id="XMLID_441_" class="st4" d="M18,136.5c0,0.2,0,0.4,0,0.6c0.4-3.1,0.9-6.1,1.5-9.2C18.5,130.7,18,133.6,18,136.5z"/>
	</g>
	<path id="XMLID_530_" class="st0" d="M171,337.4c0,0,273.7,11.7,359.8-170c0,9.2-1.2,15-2.4,22.5c-1.4,8.5-4.9,17.1-8.2,25
		c-6.5,15.8-15.3,30.6-25.7,44.1c-21,27.3-48.7,49.4-79.4,64.8c-37,18.4-78.1,27.6-119.2,29.9c-19.7,1.1-40.2,1.5-59.7-1.4
		c-10.9-1.6-21.7-3.5-32.5-5.9C193.6,344.2,181.4,341.7,171,337.4z"/>
	<path id="XMLID_348_" class="st2" d="M426,158.1c1.9-1.8,3-4.4,3-7.2c0-5.6-4.5-10.1-10.1-10.1c-4.9,0-8.9,3.5-9.9,8
		C415.9,150.3,421.9,153.5,426,158.1z"/>
</g>
</svg>
