<?xml version="1.0" encoding="utf-8"?>
<!-- Generator: Adobe Illustrator 19.0.0, SVG Export Plug-In . SVG Version: 6.00 Build 0)  -->
<svg version="1.1" id="Layer_1" xmlns="http://www.w3.org/2000/svg" xmlns:xlink="http://www.w3.org/1999/xlink" x="0px" y="0px"
	 width="551.1px" height="389.7px" viewBox="0 0 551.1 389.7" style="enable-background:new 0 0 551.1 389.7;" xml:space="preserve"
	>
<style type="text/css">
	.st0{fill:#996D50;}
	.st1{fill:#DC6A6A;}
	.st2{fill:#E07979;}
	.st3{fill:#F9C09D;}
</style>
<g id="XMLID_66_">
	<g id="XMLID_81_">
		<path id="XMLID_83_" class="st0" d="M261.1,171.1l-4.9,10.6c-2.8,6-9.9,8.6-15.9,5.9l-113.9-52.4c-6-2.8-8.6-9.9-5.9-15.9
			l4.9-10.6c2.8-6,9.9-8.6,15.9-5.9l113.9,52.4C261.2,158,263.8,165.1,261.1,171.1z"/>
		<path id="XMLID_82_" class="st1" d="M84.6,11.1C0.6,52.5,23.1,134,23.1,134h0c41.3,29,61.3,31.9,61.3,31.9
			C168.5,124.5,146,43,146,43h0C104.7,15,84.6,11.1,84.6,11.1z"/>
	</g>
	<path id="XMLID_80_" class="st2" d="M95,172.2L95,172.2c-2.6,5.8-9.4,8.4-15.2,5.8l-63.2-28.4c-5.8-2.6-8.4-9.4-5.8-15.2l0,0
		c2.6-5.8,9.4-8.4,15.2-5.8l63.2,28.4C95,159.6,97.6,166.5,95,172.2z"/>
	<path id="XMLID_633_" class="st3" d="M211,172.8c6.6-1.4,13.6,2.7,15.6,9.1c1,3.2,0.9,6.7,0.8,10.2c0.1,0.3,0.1,0.6,0.1,0.9
		c0,4.4,0.5,8.6,1.6,12.6c5.6,19.8,23.3,34.5,44.7,35c16.7,0.4,31.6-7.9,40.5-20.8c5-7.3,8.1-16,8.3-25.4
		c0.3-12.5-4.1-23.9-11.6-32.5c-8.7-10.1-21.6-16.4-36-16.4c-2.7,0-5.4,0.2-8,0.7c-6,1.6-11.2,6.2-17.3,7c-6.7,0.9-13.4-3.8-15-10.4
		c-3-12.2,9.8-19.3,19-21.3c3.3-0.7,13.2-1.5,16.5-1.6c0,0,0.1,0,0.1,0c1.6-0.1,3.2-0.2,4.8-0.2c6.8,0,13.3,0.9,19.5,2.6L273.4,71
		c-2.9-6.9,0.4-14.9,7.3-17.7l3.7-1.5c6.9-2.9,14.9,0.4,17.7,7.3l12.3,29.8l-0.4-6.4c-0.4-7.4,5.3-13.9,12.7-14.4l4-0.2
		c7.4-0.4,13.9,5.3,14.4,12.7l1.5,25.2c2.8-6,9.7-9.2,16.2-7.2l3.9,1.2c7.1,2.1,11.2,9.8,9.1,16.9l-27.6,91.8
		c-6.7,34.3-37.1,60.2-73,60.3c-17.4,0-33.4-5.8-46.1-15.8h0c-12.4-10-21.7-23.4-25.9-39c0,0,0-0.1,0-0.2c-0.9-3.2-3-11.4-3.2-14.8
		C199.4,189.4,198.8,175.3,211,172.8z"/>
</g>
</svg>
