<?xml version="1.0" encoding="utf-8"?>
<!-- Generator: Adobe Illustrator 19.0.0, SVG Export Plug-In . SVG Version: 6.00 Build 0)  -->
<svg version="1.1" id="Layer_1" xmlns="http://www.w3.org/2000/svg" xmlns:xlink="http://www.w3.org/1999/xlink" x="0px" y="0px"
	 width="147.4px" height="134.7px" viewBox="0 0 147.4 134.7" style="enable-background:new 0 0 147.4 134.7;" xml:space="preserve"
	>
<style type="text/css">
	.st0{fill:#EFC865;}
	.st1{fill:#FCDE6B;}
	.st2{opacity:0.6;fill:#EFC865;}
	.st3{fill:#DC6A6A;}
	.st4{fill:none;stroke:#603A1E;stroke-width:2;stroke-linecap:round;stroke-linejoin:round;stroke-miterlimit:10;}
</style>
<g id="XMLID_533_">
	<g id="XMLID_550_">
		<path id="XMLID_556_" class="st0" d="M74.4,6.2L130,7.5c11.1,0.3,17.7,12.4,11.9,21.9L113,76.6l-29,47.5
			c-5.8,9.4-19.5,9.1-24.8-0.6L32.4,74.8L5.8,26.2C0.5,16.5,7.6,4.6,18.7,4.9L74.4,6.2z"/>
		<path id="XMLID_555_" class="st1" d="M67.6,6.1l50.5,1.2c10.1,0.2,16.1,11.5,10.8,20.2l-26.3,43.6L76.3,115
			c-5.2,8.7-17.7,8.4-22.6-0.5l-24.2-45L5.3,24.5C0.4,15.6,7,4.6,17,4.9L67.6,6.1z"/>
		<path id="XMLID_554_" class="st2" d="M45.4,29.7c0.3-0.4,0.5-0.8,0.7-1.3c1.9-4.5-0.2-9.8-4.7-11.7c-4.5-1.9-9.8,0.2-11.7,4.7
			c-1.4,3.4-0.6,7.1,1.7,9.7c-0.3,0.4-0.5,0.8-0.7,1.3c-1.9,4.5,0.2,9.8,4.7,11.7c4.5,1.9,9.8-0.2,11.7-4.7
			C48.6,36,47.8,32.2,45.4,29.7z"/>
		<circle id="XMLID_553_" class="st2" cx="93.7" cy="52.5" r="9"/>
		<circle id="XMLID_552_" class="st2" cx="62.1" cy="75.2" r="6.1"/>
		<circle id="XMLID_551_" class="st2" cx="68.7" cy="28.5" r="6.1"/>
	</g>
	<g id="XMLID_545_">
		<path id="XMLID_548_" class="st3" d="M69.2,76.3c0.2,2.7-0.9,5.1-2.4,5.2s-2.9-2-3.1-4.8"/>
		<polyline id="XMLID_547_" class="st4" points="45.9,68.9 50.4,71.1 55,73.2 50.8,76.1 46.7,78.9 		"/>
		<polyline id="XMLID_546_" class="st4" points="86.1,65.8 82,68.6 77.8,71.5 82.3,73.7 86.9,75.8 		"/>
	</g>
</g>
</svg>
