<?xml version="1.0" encoding="utf-8"?>
<!-- Generator: Adobe Illustrator 19.0.0, SVG Export Plug-In . SVG Version: 6.00 Build 0)  -->
<svg version="1.1" id="Layer_1" xmlns="http://www.w3.org/2000/svg" xmlns:xlink="http://www.w3.org/1999/xlink" x="0px" y="0px"
	 width="147.4px" height="134.4px" viewBox="0 0 147.4 134.4" style="enable-background:new 0 0 147.4 134.4;" xml:space="preserve"
	>
<style type="text/css">
	.st0{fill:#EFC865;}
	.st1{fill:#FCDE6B;}
	.st2{opacity:0.6;fill:#EFC865;}
	.st3{fill:none;stroke:#603A1E;stroke-width:2;stroke-linecap:round;stroke-linejoin:round;stroke-miterlimit:10;}
</style>
<g id="XMLID_288_">
	<g id="XMLID_293_">
		<path id="XMLID_299_" class="st0" d="M73.6,5.9L129.2,4c11.1-0.4,18.4,11.4,13.2,21.1l-26.1,48.8L90,123
			c-5.2,9.7-19,10.2-24.8,0.9L35.7,76.8l-29.4-47C0.4,20.4,6.9,8.2,18,7.8L73.6,5.9z"/>
		<path id="XMLID_298_" class="st1" d="M66.8,6.2l50.5-1.7c10-0.3,16.7,10.5,12,19.5L105.6,69l-23.8,45.3c-4.7,9-17.2,9.4-22.6,0.8
			L32.4,71.6L5.7,28.2c-5.3-8.7,0.6-20,10.6-20.3L66.8,6.2z"/>
		<path id="XMLID_297_" class="st2" d="M45.7,30.9c0.2-0.4,0.4-0.8,0.6-1.3c1.7-4.7-0.7-9.8-5.4-11.5c-4.7-1.7-9.8,0.7-11.5,5.4
			c-1.2,3.5-0.2,7.2,2.3,9.5c-0.2,0.4-0.4,0.8-0.6,1.3c-1.7,4.7,0.7,9.8,5.4,11.5c4.7,1.7,9.8-0.7,11.5-5.4
			C49.2,37,48.2,33.2,45.7,30.9z"/>
		<circle id="XMLID_296_" class="st2" cx="95.1" cy="50.9" r="9"/>
		<circle id="XMLID_295_" class="st2" cx="64.9" cy="75.3" r="6.1"/>
		<circle id="XMLID_294_" class="st2" cx="68.8" cy="28.4" r="6.1"/>
	</g>
	<g id="XMLID_289_">
		<polyline id="XMLID_292_" class="st3" points="49.1,70.2 53.7,72.1 58.3,74 54.4,77.1 50.4,80.1 		"/>
		<polyline id="XMLID_291_" class="st3" points="89,65 85.1,68 81.1,71.1 85.7,73 90.3,75 		"/>
		<path id="XMLID_290_" class="st3" d="M76.7,74.7c0,0-2.4,2.9-6.2,0c-2.9,3.8-6,1.6-6,1.6"/>
	</g>
</g>
</svg>
