<?xml version="1.0" encoding="utf-8"?>
<!-- Generator: Adobe Illustrator 19.0.0, SVG Export Plug-In . SVG Version: 6.00 Build 0)  -->
<svg version="1.1" id="Layer_1" xmlns="http://www.w3.org/2000/svg" xmlns:xlink="http://www.w3.org/1999/xlink" x="0px" y="0px"
	 width="147.4px" height="134.4px" viewBox="0 0 147.4 134.4" style="enable-background:new 0 0 147.4 134.4;" xml:space="preserve"
	>
<style type="text/css">
	.st0{fill:#EFC865;}
	.st1{fill:#FCDE6B;}
	.st2{opacity:0.6;fill:#EFC865;}
	.st3{fill:#5F381D;}
	.st4{fill:none;stroke:#603A1E;stroke-width:2;stroke-linecap:round;stroke-linejoin:round;stroke-miterlimit:10;}
	.st5{fill:#FEF3ED;}
</style>
<g id="XMLID_275_">
	<g id="XMLID_281_">
		<path id="XMLID_287_" class="st0" d="M73.6,5.9L129.2,4c11.1-0.4,18.4,11.4,13.1,21.1l-26.1,48.8L90,123
			c-5.2,9.7-19,10.2-24.8,0.8L35.7,76.7l-29.4-47C0.4,20.4,6.9,8.2,18,7.8L73.6,5.9z"/>
		<path id="XMLID_286_" class="st1" d="M66.8,6.1l50.5-1.7C127.4,4.1,134,15,129.3,24L105.5,69l-23.8,45.3c-4.7,9-17.2,9.4-22.6,0.8
			L32.4,71.6L5.7,28.1c-5.3-8.7,0.6-20,10.6-20.3L66.8,6.1z"/>
		<path id="XMLID_285_" class="st2" d="M46.1,31.1c0.2-0.4,0.4-0.8,0.6-1.3c1.7-4.7-0.7-9.8-5.4-11.5c-4.7-1.7-9.8,0.7-11.5,5.4
			c-1.2,3.5-0.2,7.2,2.3,9.5c-0.2,0.4-0.4,0.8-0.6,1.3c-1.7,4.7,0.7,9.8,5.4,11.5c4.7,1.7,9.8-0.7,11.5-5.4
			C49.6,37.2,48.6,33.5,46.1,31.1z"/>
		<circle id="XMLID_284_" class="st2" cx="95.5" cy="51.1" r="9"/>
		<circle id="XMLID_283_" class="st2" cx="65.3" cy="75.6" r="6.1"/>
		<circle id="XMLID_282_" class="st2" cx="69.2" cy="28.6" r="6.1"/>
	</g>
	<circle id="XMLID_280_" class="st3" cx="87.4" cy="71.1" r="6.4"/>
	<circle id="XMLID_279_" class="st3" cx="54.5" cy="75.4" r="6.4"/>
	<path id="XMLID_278_" class="st4" d="M77,73c0,0-2.4,2.9-6.2,0c-2.9,3.8-6,1.6-6,1.6"/>
	<circle id="XMLID_277_" class="st5" cx="52.5" cy="74.8" r="2.4"/>
	<circle id="XMLID_276_" class="st5" cx="85.9" cy="70.5" r="2.4"/>
</g>
</svg>
