<?xml version="1.0" encoding="utf-8"?>
<!-- Generator: Adobe Illustrator 19.0.0, SVG Export Plug-In . SVG Version: 6.00 Build 0)  -->
<svg version="1.1" id="Layer_1" xmlns="http://www.w3.org/2000/svg" xmlns:xlink="http://www.w3.org/1999/xlink" x="0px" y="0px"
	 width="147.4px" height="134.7px" viewBox="0 0 147.4 134.7" style="enable-background:new 0 0 147.4 134.7;" xml:space="preserve"
	>
<style type="text/css">
	.st0{fill:#EFC865;}
	.st1{fill:#FCDE6B;}
	.st2{opacity:0.6;fill:#EFC865;}
	.st3{fill:#5F381D;}
	.st4{fill:#FEF3ED;}
	.st5{fill:#DC6A6A;}
</style>
<g id="XMLID_531_">
	<g id="XMLID_538_">
		<path id="XMLID_544_" class="st0" d="M74.6,5.5l55.6,1.5c11.1,0.3,17.6,12.5,11.8,21.9L113,75.9l-29.2,47.4
			c-5.8,9.4-19.6,9-24.8-0.7L32.4,73.9L5.9,25.2C0.6,15.5,7.8,3.7,18.9,4L74.6,5.5z"/>
		<path id="XMLID_543_" class="st1" d="M67.8,5.3l50.5,1.4c10,0.3,16,11.5,10.7,20.2l-26.4,43.5l-26.5,43.8
			c-5.3,8.7-17.8,8.4-22.6-0.6L29.5,68.5l-24-45c-4.8-9,1.8-19.9,11.8-19.6L67.8,5.3z"/>
		<path id="XMLID_542_" class="st2" d="M45.6,28.8c0.3-0.4,0.5-0.8,0.7-1.3c2-4.5-0.1-9.8-4.7-11.8c-4.5-2-9.8,0.1-11.8,4.7
			c-1.5,3.4-0.7,7.1,1.7,9.7c-0.3,0.4-0.5,0.8-0.7,1.3c-2,4.5,0.1,9.8,4.7,11.8c4.5,2,9.8-0.1,11.8-4.7
			C48.7,35.1,47.9,31.3,45.6,28.8z"/>
		<circle id="XMLID_541_" class="st2" cx="93.7" cy="51.8" r="9"/>
		<circle id="XMLID_540_" class="st2" cx="62.1" cy="74.4" r="6.1"/>
		<circle id="XMLID_539_" class="st2" cx="68.8" cy="27.7" r="6.1"/>
	</g>
	<circle id="XMLID_537_" class="st3" cx="84.4" cy="71.3" r="6.4"/>
	<circle id="XMLID_536_" class="st3" cx="51.3" cy="73.5" r="6.4"/>
	<circle id="XMLID_535_" class="st4" cx="49.4" cy="72.8" r="2.4"/>
	<circle id="XMLID_534_" class="st4" cx="82.9" cy="70.5" r="2.4"/>
	<path id="XMLID_532_" class="st5" d="M70,78.9c0.2,2.7-0.9,5.1-2.4,5.2s-2.9-2-3.1-4.8"/>
</g>
</svg>
