<?xml version="1.0" encoding="utf-8"?>
<!-- Generator: Adobe Illustrator 19.0.0, SVG Export Plug-In . SVG Version: 6.00 Build 0)  -->
<svg version="1.1" id="Layer_1" xmlns="http://www.w3.org/2000/svg" xmlns:xlink="http://www.w3.org/1999/xlink" x="0px" y="0px"
	 width="147.4px" height="134.4px" viewBox="0 0 147.4 134.4" style="enable-background:new 0 0 147.4 134.4;" xml:space="preserve"
	>
<style type="text/css">
	.st0{fill:#EFC865;}
	.st1{fill:#FCDE6B;}
	.st2{opacity:0.6;fill:#EFC865;}
	.st3{fill:#5F381D;}
	.st4{fill:#DEA6A5;}
	.st5{fill:none;stroke:#603A1E;stroke-width:2;stroke-linecap:round;stroke-linejoin:round;stroke-miterlimit:10;}
</style>
<g id="XMLID_336_">
	<g id="XMLID_342_">
		<path id="XMLID_348_" class="st0" d="M73.6,5.8l55.6-1.7c11.1-0.3,18.3,11.4,13.1,21.2L116.1,74l-26.4,49
			c-5.2,9.7-19,10.2-24.8,0.8L35.5,76.6L6.2,29.5C0.4,20.1,6.9,7.9,18,7.6L73.6,5.8z"/>
		<path id="XMLID_347_" class="st1" d="M66.8,6.1l50.5-1.6C127.4,4.2,134,15,129.2,24l-23.8,45l-23.9,45.3c-4.7,9-17.3,9.4-22.6,0.7
			L32.3,71.4L5.6,27.9c-5.3-8.7,0.6-20,10.7-20.3L66.8,6.1z"/>
		<path id="XMLID_346_" class="st2" d="M46,30.9c0.2-0.4,0.4-0.8,0.6-1.3c1.7-4.6-0.7-9.8-5.4-11.5c-4.6-1.7-9.8,0.7-11.5,5.4
			c-1.3,3.5-0.2,7.2,2.3,9.5c-0.2,0.4-0.4,0.8-0.6,1.3c-1.7,4.6,0.7,9.8,5.4,11.5c4.6,1.7,9.8-0.7,11.5-5.4
			C49.5,37,48.5,33.2,46,30.9z"/>
		<circle id="XMLID_345_" class="st2" cx="95.4" cy="51" r="9"/>
		<circle id="XMLID_344_" class="st2" cx="65.2" cy="75.4" r="6.1"/>
		<circle id="XMLID_343_" class="st2" cx="69.2" cy="28.4" r="6.1"/>
	</g>
	<g id="XMLID_337_">
		
			<ellipse id="XMLID_341_" transform="matrix(0.9921 -0.1253 0.1253 0.9921 -9.0661 9.4017)" class="st3" cx="70.2" cy="76.8" rx="2.8" ry="5"/>
		<path id="XMLID_340_" class="st4" d="M73,76.4c0.3,2.7-0.6,5.1-2.1,5.3c-1.5,0.2-3-1.9-3.4-4.6"/>
		<polyline id="XMLID_339_" class="st5" points="49.4,70.2 54,72.1 58.6,74.1 54.6,77.1 50.6,80.1 		"/>
		<polyline id="XMLID_338_" class="st5" points="89.3,65.1 85.3,68.2 81.3,71.2 86,73.1 90.6,75.1 		"/>
	</g>
</g>
</svg>
