<?xml version="1.0" encoding="utf-8"?>
<!-- Generator: Adobe Illustrator 19.0.0, SVG Export Plug-In . SVG Version: 6.00 Build 0)  -->
<svg version="1.1" id="Layer_1" xmlns="http://www.w3.org/2000/svg" xmlns:xlink="http://www.w3.org/1999/xlink" x="0px" y="0px"
	 width="147.4px" height="134.4px" viewBox="0 0 147.4 134.4" style="enable-background:new 0 0 147.4 134.4;" xml:space="preserve"
	>
<style type="text/css">
	.st0{fill:#EFC865;}
	.st1{fill:#FCDE6B;}
	.st2{opacity:0.6;fill:#EFC865;}
	.st3{fill:#5F381D;}
	.st4{fill:#FEF3ED;}
	.st5{fill:#DEA6A5;}
</style>
<g id="XMLID_196_">
	<g id="XMLID_203_">
		<path id="XMLID_209_" class="st0" d="M73.1,5.7l55.6-2.3c11.1-0.5,18.5,11.3,13.3,21l-25.8,49l-25.9,49.3
			c-5.1,9.8-18.9,10.3-24.8,1L35.7,76.8L6,30.1C0,20.7,6.4,8.5,17.5,8L73.1,5.7z"/>
		<path id="XMLID_208_" class="st1" d="M66.3,6l50.5-2.1c10-0.4,16.8,10.4,12.1,19.5l-23.4,45.2L82,114.1c-4.7,9-17.2,9.5-22.6,0.9
			L32.4,71.7l-27-43.3c-5.4-8.6,0.4-20,10.5-20.4L66.3,6z"/>
		<path id="XMLID_207_" class="st2" d="M45.8,30.5c0.2-0.4,0.4-0.8,0.6-1.3c1.6-4.7-0.8-9.8-5.5-11.4c-4.7-1.6-9.8,0.8-11.4,5.5
			c-1.2,3.5-0.2,7.2,2.3,9.5c-0.2,0.4-0.4,0.8-0.6,1.3c-1.6,4.7,0.8,9.8,5.5,11.4c4.7,1.6,9.8-0.8,11.4-5.5
			C49.3,36.6,48.3,32.9,45.8,30.5z"/>
		<circle id="XMLID_206_" class="st2" cx="95.3" cy="50.2" r="9"/>
		<circle id="XMLID_205_" class="st2" cx="65.3" cy="74.9" r="6.1"/>
		<circle id="XMLID_204_" class="st2" cx="68.9" cy="27.9" r="6.1"/>
	</g>
	<circle id="XMLID_202_" class="st3" cx="87.4" cy="70.3" r="6.4"/>
	<circle id="XMLID_201_" class="st3" cx="54.5" cy="74.7" r="6.4"/>
	<circle id="XMLID_200_" class="st4" cx="52.5" cy="74.1" r="2.4"/>
	<circle id="XMLID_199_" class="st4" cx="85.9" cy="69.6" r="2.4"/>
	
		<ellipse id="XMLID_198_" transform="matrix(0.9909 -0.1348 0.1348 0.9909 -10.0254 10.2607)" class="st3" cx="70.8" cy="79.2" rx="2.8" ry="5"/>
	<path id="XMLID_197_" class="st5" d="M73.5,78.8c0.4,2.7-0.6,5.1-2.1,5.3c-1.5,0.2-3-1.8-3.4-4.6"/>
</g>
</svg>
